<?xml version="1.0" encoding="utf-8"?>
<svg version="1.1" width="3px" height="6px" xmlns:xlink="http://www.w3.org/1999/xlink" xmlns="http://www.w3.org/2000/svg">
  <g transform="translate(-1528 -2063 )">
    <path d="M 2.94845360824742 0.360721442885776  C 2.9828178694158 0.400801603206403  3 0.446893787575142  3 0.498997995991992  C 3 0.551102204408821  2.9828178694158 0.597194388777559  2.94845360824742 0.637274549098187  L 0.922680412371127 3  L 2.94845360824742 5.36272545090181  C 2.9828178694158 5.40280561122244  3 5.44889779559118  3 5.50100200400801  C 3 5.55310621242486  2.9828178694158 5.5991983967936  2.94845360824742 5.63927855711422  L 2.69072164948454 5.93987975951904  C 2.65635738831615 5.97995991983969  2.61683848797251 6  2.57216494845361 6  C 2.52749140893472 6  2.48797250859106 5.97995991983969  2.45360824742268 5.93987975951904  L 0.051546391752576 3.13827655310622  C 0.0171821305841983 3.09819639278557  0 3.05210420841683  0 3  C 0 2.94789579158317  0.0171821305841983 2.90180360721443  0.051546391752576 2.86172344689378  L 1.36947916237328 1.32457540580912  L 2.45360824742268 0.0601202404809627  C 2.48797250859106 0.0200400801603138  2.52749140893472 0  2.57216494845361 0  C 2.61683848797251 0  2.65635738831615 0.0200400801603138  2.69072164948454 0.0601202404809627  L 2.94845360824742 0.360721442885776  Z " fill-rule="nonzero" fill="#333333" stroke="none" transform="matrix(1 0 0 1 1528 2063 )" />
  </g>
</svg>