<?xml version="1.0" encoding="utf-8"?>
<svg version="1.1" xmlns:xlink="http://www.w3.org/1999/xlink" width="36px" height="27px" xmlns="http://www.w3.org/2000/svg">
  <g transform="matrix(1 0 0 1 -962 -665 )">
    <path d="M 23.8125 15.8011363636364  C 23.9375 15.6477272727273  24 15.4943181818182  24 15.3409090909091  C 24 15.1619318181818  23.94375 15.0149147727273  23.83125 14.8998579545455  C 23.71875 14.7848011363636  23.575 14.7272727272727  23.4 14.7272727272727  L 19.2 14.7272727272727  L 19.2 7.97727272727273  C 19.2 7.81107954545454  19.140625 7.66725852272727  19.021875 7.54580965909091  C 18.903125 7.42436079545454  18.7625 7.36363636363636  18.6 7.36363636363636  L 15 7.36363636363636  C 14.8375 7.36363636363636  14.696875 7.42436079545454  14.578125 7.54580965909091  C 14.459375 7.66725852272727  14.4 7.81107954545454  14.4 7.97727272727273  L 14.4 14.7272727272727  L 10.2 14.7272727272727  C 10.0375 14.7272727272727  9.896875 14.7879971590909  9.778125 14.9094460227273  C 9.659375 15.0308948863636  9.6 15.1747159090909  9.6 15.3409090909091  C 9.6 15.5198863636364  9.65625 15.6669034090909  9.76875 15.7819602272727  L 16.36875 22.5319602272727  C 16.48125 22.6470170454545  16.625 22.7045454545455  16.8 22.7045454545455  C 16.975 22.7045454545455  17.11875 22.6470170454545  17.23125 22.5319602272727  L 23.8125 15.8011363636364  Z M 34.434375 15.0628551136364  C 35.478125 16.3987926136364  36 17.9232954545455  36 19.6363636363636  C 36 21.6690340909091  35.296875 23.4044744318182  33.890625 24.8426846590909  C 32.484375 26.2808948863636  30.7875 27  28.8 27  L 8.4 27  C 6.0875 27  4.109375 26.1594460227273  2.465625 24.4783380681818  C 0.821875 22.7972301136364  0 20.7741477272727  0 18.4090909090909  C 0 16.7471590909091  0.4375 15.2130681818182  1.3125 13.8068181818182  C 2.1875 12.4005681818182  3.3625 11.3458806818182  4.8375 10.6427556818182  C 4.8125 10.2592329545455  4.8 9.984375  4.8 9.81818181818182  C 4.8 7.10795454545454  5.7375 4.79403409090909  7.6125 2.87642045454546  C 9.4875 0.958806818181818  11.75 0  14.4 0  C 16.35 0  18.134375 0.556107954545455  19.753125 1.66832386363636  C 21.371875 2.78053977272727  22.55 4.25710227272727  23.2875 6.09801136363636  C 24.175 5.30539772727272  25.2125 4.90909090909091  26.4 4.90909090909091  C 27.725 4.90909090909091  28.85625 5.38849431818182  29.79375 6.34730113636364  C 30.73125 7.30610795454546  31.2 8.46306818181818  31.2 9.81818181818182  C 31.2 10.7897727272727  30.94375 11.671875  30.43125 12.4644886363636  C 32.05625 12.8607954545455  33.390625 13.7269176136364  34.434375 15.0628551136364  Z " fill-rule="nonzero" fill="#ffffff" stroke="none" transform="matrix(1 0 0 1 962 665 )" />
  </g>
</svg>