<?xml version="1.0" encoding="utf-8"?>
<svg version="1.1" xmlns:xlink="http://www.w3.org/1999/xlink" width="22px" height="22px" xmlns="http://www.w3.org/2000/svg">
  <g transform="matrix(1 0 0 1 -570 -629 )">
    <path d="M 5.478515625 1.47526041666667  C 7.16384548611111 0.49175347222222  9.00434027777778 0  11 0  C 12.9956597222222 0  14.8361545138889 0.49175347222222  16.521484375 1.47526041666667  C 18.2068142361111 2.45876736111111  19.5412326388889 3.79318576388889  20.5247395833333 5.478515625  C 21.5082465277778 7.16384548611111  22 9.00434027777778  22 11  C 22 12.9956597222222  21.5082465277778 14.8361545138889  20.5247395833333 16.521484375  C 19.5412326388889 18.2068142361111  18.2068142361111 19.5412326388889  16.521484375 20.5247395833333  C 14.8361545138889 21.5082465277778  12.9956597222222 22  11 22  C 9.00434027777778 22  7.16384548611111 21.5082465277778  5.478515625 20.5247395833333  C 3.79318576388889 19.5412326388889  2.45876736111111 18.2068142361111  1.47526041666667 16.521484375  C 0.491753472222222 14.8361545138889  0 12.9956597222222  0 11  C 0 9.00434027777778  0.491753472222222 7.16384548611111  1.47526041666667 5.478515625  C 2.45876736111111 3.79318576388889  3.79318576388889 2.45876736111111  5.478515625 1.47526041666667  Z M 8.70833333333333 16.37109375  L 16.5 11.7877604166667  C 16.8055555555556 11.6158854166667  16.9583333333333 11.3532986111111  16.9583333333333 11  C 16.9583333333333 10.6467013888889  16.8055555555556 10.3841145833333  16.5 10.2122395833333  L 8.70833333333333 5.62890625  C 8.41232638888889 5.44748263888889  8.10677083333333 5.44270833333333  7.79166666666667 5.61458333333333  C 7.48611111111111 5.79600694444444  7.33333333333333 6.06336805555555  7.33333333333333 6.41666666666667  L 7.33333333333333 15.5833333333333  C 7.33333333333333 15.9366319444444  7.48611111111111 16.2039930555556  7.79166666666667 16.3854166666667  C 7.94444444444445 16.4618055555556  8.09722222222222 16.5  8.25 16.5  C 8.41232638888889 16.5  8.56510416666667 16.45703125  8.70833333333333 16.37109375  Z " fill-rule="nonzero" fill="#424242" stroke="none" fill-opacity="0.490196078431373" transform="matrix(1 0 0 1 570 629 )" />
  </g>
</svg>