<?xml version="1.0" encoding="utf-8"?>
<svg version="1.1" xmlns:xlink="http://www.w3.org/1999/xlink" width="22px" height="61px" xmlns="http://www.w3.org/2000/svg">
  <g transform="matrix(1 0 0 1 -1409 -465 )">
    <path d="M 21.0571428571429 45.1851851851852  C 21.4571428571429 45.1851851851852  21.7333333333333 45.4087577160494  21.8857142857143 45.8559027777778  C 22.0380952380952 46.3030478395062  21.9904761904762 46.7148919753086  21.7428571428571 47.0914351851852  L 11.7428571428571 60.6469907407407  C 11.552380952381 60.8823302469136  11.3333333333333 61  11.0857142857143 61  C 10.8190476190476 61  10.5904761904762 60.8823302469136  10.4 60.6469907407407  L 0.257142857142857 47.0914351851852  C 0.0095238095238095 46.7148919753086  -0.0380952380952381 46.3030478395062  0.114285714285714 45.8559027777778  C 0.285714285714286 45.4087577160494  0.561904761904762 45.1851851851852  0.942857142857143 45.1851851851852  L 7.34285714285714 45.1851851851852  L 7.34285714285714 1.12962962962963  C 7.34285714285714 0.800154320987648  7.42857142857143 0.52951388888889  7.6 0.317708333333336  C 7.77142857142857 0.105902777777781  7.99047619047619 0  8.25714285714286 0  L 13.7428571428571 0  C 14.0095238095238 0  14.2285714285714 0.105902777777781  14.4 0.317708333333336  C 14.5714285714286 0.52951388888889  14.6571428571429 0.800154320987648  14.6571428571429 1.12962962962963  L 14.6571428571429 45.1851851851852  L 21.0571428571429 45.1851851851852  Z " fill-rule="nonzero" fill="#000000" stroke="none" transform="matrix(1 0 0 1 1409 465 )" />
  </g>
</svg>