<?xml version="1.0" encoding="utf-8"?>
<svg version="1.1" xmlns:xlink="http://www.w3.org/1999/xlink" width="22px" height="50px" xmlns="http://www.w3.org/2000/svg">
  <g transform="matrix(1 0 0 1 -506 -982 )">
    <path d="M 21.0571428571429 37.037037037037  C 21.4571428571429 37.037037037037  21.7333333333333 37.2202932098765  21.8857142857143 37.5868055555556  C 22.0380952380952 37.9533179012346  21.9904761904762 38.2908950617284  21.7428571428571 38.599537037037  L 11.7428571428571 49.7106481481481  C 11.552380952381 49.9035493827161  11.3333333333333 50  11.0857142857143 50  C 10.8190476190476 50  10.5904761904762 49.9035493827161  10.4 49.7106481481481  L 0.257142857142857 38.599537037037  C 0.0095238095238095 38.2908950617284  -0.0380952380952381 37.9533179012346  0.114285714285714 37.5868055555556  C 0.285714285714286 37.2202932098765  0.561904761904762 37.037037037037  0.942857142857143 37.037037037037  L 7.34285714285714 37.037037037037  L 7.34285714285714 0.925925925925924  C 7.34285714285714 0.655864197530859  7.42857142857143 0.434027777777779  7.6 0.260416666666669  C 7.77142857142857 0.086805555555558  7.99047619047619 0  8.25714285714286 0  L 13.7428571428571 0  C 14.0095238095238 0  14.2285714285714 0.086805555555558  14.4 0.260416666666669  C 14.5714285714286 0.434027777777779  14.6571428571429 0.655864197530859  14.6571428571429 0.925925925925924  L 14.6571428571429 37.037037037037  L 21.0571428571429 37.037037037037  Z " fill-rule="nonzero" fill="#000000" stroke="none" transform="matrix(1 0 0 1 506 982 )" />
  </g>
</svg>