<?xml version="1.0" encoding="utf-8"?>
<svg version="1.1" xmlns:xlink="http://www.w3.org/1999/xlink" width="25px" height="25px" xmlns="http://www.w3.org/2000/svg">
  <g transform="matrix(1 0 0 1 -939 -1328 )">
    <path d="M 11.3118489583333 17.5618489583333  C 11.4095052083333 17.4641927083333  11.4583333333333 17.3394097222222  11.4583333333333 17.1875  L 11.4583333333333 7.8125  C 11.4583333333333 7.66059027777778  11.4095052083333 7.53580729166667  11.3118489583333 7.43815104166667  C 11.2141927083333 7.34049479166667  11.0894097222222 7.29166666666667  10.9375 7.29166666666667  L 6.77083333333333 7.29166666666667  C 6.61892361111111 7.29166666666667  6.494140625 7.34049479166667  6.396484375 7.43815104166667  C 6.298828125 7.53580729166667  6.25 7.66059027777778  6.25 7.8125  L 6.25 17.1875  C 6.25 17.3394097222222  6.298828125 17.4641927083333  6.396484375 17.5618489583333  C 6.494140625 17.6595052083333  6.61892361111111 17.7083333333333  6.77083333333333 17.7083333333333  L 10.9375 17.7083333333333  C 11.0894097222222 17.7083333333333  11.2141927083333 17.6595052083333  11.3118489583333 17.5618489583333  Z M 18.603515625 17.5618489583333  C 18.701171875 17.4641927083333  18.75 17.3394097222222  18.75 17.1875  L 18.75 7.8125  C 18.75 7.66059027777778  18.701171875 7.53580729166667  18.603515625 7.43815104166667  C 18.505859375 7.34049479166667  18.3810763888889 7.29166666666667  18.2291666666667 7.29166666666667  L 14.0625 7.29166666666667  C 13.9105902777778 7.29166666666667  13.7858072916667 7.34049479166667  13.6881510416667 7.43815104166667  C 13.5904947916667 7.53580729166667  13.5416666666667 7.66059027777778  13.5416666666667 7.8125  L 13.5416666666667 17.1875  C 13.5416666666667 17.3394097222222  13.5904947916667 17.4641927083333  13.6881510416667 17.5618489583333  C 13.7858072916667 17.6595052083333  13.9105902777778 17.7083333333333  14.0625 17.7083333333333  L 18.2291666666667 17.7083333333333  C 18.3810763888889 17.7083333333333  18.505859375 17.6595052083333  18.603515625 17.5618489583333  Z M 23.3235677083333 6.2255859375  C 24.4411892361111 8.14073350694444  25 10.2322048611111  25 12.5  C 25 14.7677951388889  24.4411892361111 16.8592664930556  23.3235677083333 18.7744140625  C 22.2059461805556 20.6895616319444  20.6895616319444 22.2059461805556  18.7744140625 23.3235677083333  C 16.8592664930556 24.4411892361111  14.7677951388889 25  12.5 25  C 10.2322048611111 25  8.14073350694444 24.4411892361111  6.2255859375 23.3235677083333  C 4.31043836805556 22.2059461805556  2.79405381944444 20.6895616319444  1.67643229166667 18.7744140625  C 0.558810763888889 16.8592664930556  0 14.7677951388889  0 12.5  C 0 10.2322048611111  0.558810763888889 8.14073350694444  1.67643229166667 6.2255859375  C 2.79405381944444 4.31043836805556  4.31043836805556 2.79405381944444  6.2255859375 1.67643229166667  C 8.14073350694444 0.558810763888887  10.2322048611111 0  12.5 0  C 14.7677951388889 0  16.8592664930556 0.558810763888887  18.7744140625 1.67643229166667  C 20.6895616319444 2.79405381944444  22.2059461805556 4.31043836805556  23.3235677083333 6.2255859375  Z " fill-rule="nonzero" fill="#9e9e9e" stroke="none" transform="matrix(1 0 0 1 939 1328 )" />
  </g>
</svg>