<?xml version="1.0" encoding="utf-8"?>
<svg version="1.1" xmlns:xlink="http://www.w3.org/1999/xlink" width="20px" height="18px" xmlns="http://www.w3.org/2000/svg">
  <g transform="matrix(1 0 0 1 -446 -651 )">
    <path d="M 0.591517857142858 8.13375  C 0.197172619047616 9.13875  0 10.3875  0 11.88  C 0 13.125  0.472470238095237 14.81625  1.41741071428571 16.95375  C 1.43973214285714 17.00625  1.47879464285714 17.09625  1.53459821428571 17.22375  C 1.59040178571428 17.35125  1.640625 17.46375  1.68526785714286 17.56125  C 1.72991071428571 17.65875  1.77827380952381 17.74125  1.83035714285714 17.80875  C 1.91964285714286 17.93625  2.02380952380952 18  2.14285714285714 18  C 2.25446428571429 18  2.34188988095238 17.9625  2.40513392857143 17.8875  C 2.46837797619047 17.8125  2.5 17.71875  2.5 17.60625  C 2.5 17.53875  2.4906994047619 17.439375  2.47209821428571 17.308125  C 2.45349702380952 17.176875  2.44419642857143 17.08875  2.44419642857143 17.04375  C 2.40699404761905 16.53375  2.38839285714285 16.0725  2.38839285714286 15.66  C 2.38839285714285 14.9025  2.45349702380952 14.22375  2.58370535714286 13.62375  C 2.71391369047619 13.02375  2.89434523809524 12.504375  3.125 12.065625  C 3.35565476190476 11.626875  3.65327380952381 11.248125  4.01785714285714 10.929375  C 4.38244047619047 10.610625  4.77492559523809 10.35  5.1953125 10.1475  C 5.6156994047619 9.945  6.11049107142857 9.785625  6.6796875 9.669375  C 7.24888392857143 9.553125  7.82180059523809 9.4725  8.3984375 9.4275  C 8.97507440476191 9.3825  9.62797619047619 9.36  10.3571428571429 9.36  L 12.8571428571429 9.36  L 12.8571428571429 12.24  C 12.8571428571429 12.435  12.9278273809524 12.60375  13.0691964285714 12.74625  C 13.2105654761905 12.88875  13.3779761904762 12.96  13.5714285714286 12.96  C 13.764880952381 12.96  13.9322916666667 12.88875  14.0736607142857 12.74625  L 19.7879464285714 6.98625  C 19.9293154761905 6.84375  20 6.675  20 6.48  C 20 6.285  19.9293154761905 6.11625  19.7879464285714 5.97375  L 14.0736607142857 0.213749999999999  C 13.9322916666667 0.0712499999999991  13.764880952381 0  13.5714285714286 0  C 13.3779761904762 0  13.2105654761905 0.0712499999999991  13.0691964285714 0.213749999999999  C 12.9278273809524 0.356249999999998  12.8571428571429 0.524999999999998  12.8571428571429 0.720000000000001  L 12.8571428571429 3.6  L 10.3571428571429 3.6  C 5.05208333333333 3.6  1.796875 5.11125  0.591517857142858 8.13375  Z " fill-rule="nonzero" fill="#424242" stroke="none" fill-opacity="0.490196078431373" transform="matrix(1 0 0 1 446 651 )" />
  </g>
</svg>