<?xml version="1.0" encoding="utf-8"?>
<svg version="1.1" xmlns:xlink="http://www.w3.org/1999/xlink" width="63px" height="63px" xmlns="http://www.w3.org/2000/svg">
  <g transform="matrix(1 0 0 1 -1658 -410 )">
    <path d="M 59.4635416666667 16.7303664921466  C 61.8211805555556 21.2626527050611  63 26.130890052356  63 31.3350785340314  C 63 35.6352530541012  62.1675347222222 39.739965095986  60.5026041666667 43.6492146596859  C 58.8376736111111 47.5584642233857  56.6015625 50.9240837696335  53.7942708333333 53.7460732984293  C 50.9869791666667 56.5680628272251  47.6388888888889 58.8158813263525  43.75 60.4895287958115  C 39.8611111111111 62.1631762652705  35.7777777777778 63  31.5 63  C 27.2222222222222 63  23.1388888888889 62.1631762652705  19.25 60.4895287958115  C 15.3611111111111 58.8158813263525  12.0130208333333 56.5680628272251  9.20572916666667 53.7460732984293  C 6.3984375 50.9240837696335  4.16232638888889 47.5584642233857  2.49739583333333 43.6492146596859  C 0.832465277777778 39.739965095986  0 35.6352530541012  0 31.3350785340314  C 0 26.130890052356  1.17881944444444 21.2626527050611  3.53645833333333 16.7303664921466  C 5.89409722222222 12.1980802792321  9.11458333333333 8.46596858638744  13.1979166666667 5.53403141361257  C 17.28125 2.6020942408377  21.8263888888889 0.757417102966839  26.8333333333333 0  L 26.8333333333333 8.35602094240837  C 21.4618055555556 9.45549738219895  17.0078125 12.1553228621291  13.4713541666667 16.4554973821989  C 9.93489583333333 20.7556719022688  8.16666666666667 25.7155322862129  8.16666666666667 31.3350785340314  C 8.16666666666667 34.5113438045375  8.78645833333333 37.5471204188482  10.0260416666667 40.4424083769634  C 11.265625 43.3376963350785  12.9244791666667 45.8298429319372  15.0026041666667 47.9188481675393  C 17.0807291666667 50.0078534031414  19.5598958333333 51.6753926701571  22.4401041666667 52.9214659685864  C 25.3203125 54.1675392670157  28.3402777777778 54.7905759162304  31.5 54.7905759162304  C 34.6597222222222 54.7905759162304  37.6796875 54.1675392670157  40.5598958333333 52.9214659685864  C 43.4401041666667 51.6753926701571  45.9192708333333 50.0078534031414  47.9973958333333 47.9188481675393  C 50.0755208333333 45.8298429319372  51.734375 43.3376963350785  52.9739583333333 40.4424083769634  C 54.2135416666667 37.5471204188482  54.8333333333333 34.5113438045375  54.8333333333333 31.3350785340314  C 54.8333333333333 25.7155322862129  53.0651041666667 20.7556719022688  49.5286458333333 16.4554973821989  C 45.9921875 12.1553228621291  41.5381944444445 9.45549738219895  36.1666666666667 8.35602094240837  L 36.1666666666667 0  C 41.1736111111111 0.757417102966839  45.71875 2.6020942408377  49.8020833333333 5.53403141361257  C 53.8854166666667 8.46596858638744  57.1059027777778 12.1980802792321  59.4635416666667 16.7303664921466  Z " fill-rule="nonzero" fill="#ffffff" stroke="none" transform="matrix(1 0 0 1 1658 410 )" />
  </g>
</svg>