<?xml version="1.0" encoding="utf-8"?>
<svg version="1.1" xmlns:xlink="http://www.w3.org/1999/xlink" width="25px" height="25px" xmlns="http://www.w3.org/2000/svg">
  <g transform="matrix(1 0 0 1 -1925 -1330 )">
    <path d="M 1937.5 1330  C 1944.5 1330  1950 1335.5  1950 1342.5  C 1950 1349.5  1944.5 1355  1937.5 1355  C 1930.5 1355  1925 1349.5  1925 1342.5  C 1925 1335.5  1930.5 1330  1937.5 1330  Z " fill-rule="nonzero" fill="#ffffff" stroke="none" />
    <path d="M 1937.5 1330.5  C 1944.22 1330.5  1949.5 1335.78  1949.5 1342.5  C 1949.5 1349.22  1944.22 1354.5  1937.5 1354.5  C 1930.78 1354.5  1925.5 1349.22  1925.5 1342.5  C 1925.5 1335.78  1930.78 1330.5  1937.5 1330.5  Z " stroke-width="1" stroke="#797979" fill="none" />
  </g>
</svg>