<?xml version="1.0" encoding="utf-8"?>
<svg version="1.1" xmlns:xlink="http://www.w3.org/1999/xlink" width="46px" height="50px" xmlns="http://www.w3.org/2000/svg">
  <defs>
    <mask fill="white" id="clip30">
      <path d="M 12.6887019230769 2.09263392857144  C 14.0709134615386 0.697544642857167  15.738782051282 0  17.6923076923076 0  C 19.6642628205129 0  21.3367387820513 0.720796130952408  22.7097355769231 2.16238839285717  C 24.0827323717949 3.60398065476193  24.7692307692307 5.31994047619048  24.7692307692307 7.31026785714283  L 24.7692307692307 13.4486607142857  C 25.1746794871795 13.4114583333333  25.4695512820513 13.3928571428572  25.6538461538462 13.3928571428572  C 27.4783653846155 13.3928571428572  29.0725160256411 14.0345982142857  30.4362980769231 15.3180803571428  C 31.3024839743589 14.9274553571428  32.2147435897436 14.7321428571428  33.1730769230769 14.7321428571428  C 35.2556089743589 14.7321428571428  36.9511217948718 15.5412946428572  38.2596153846155 17.1595982142857  C 38.7572115384614 17.0293898809524  39.2732371794873 16.9642857142857  39.8076923076924 16.9642857142857  C 41.5400641025642 16.9642857142857  43.0052083333333 17.5920758928572  44.203125 18.84765625  C 45.4010416666667 20.1032366071428  46 21.6052827380952  46 23.3537946428572  L 46 29.4084821428571  C 46 31.5662202380952  45.7419871794873 33.6588541666667  45.2259615384614 35.6863839285714  L 42.6826923076924 45.9542410714286  C 42.3878205128206 47.1447172619048  41.761217948718 48.1166294642857  40.8028846153845 48.8699776785714  C 39.8445512820513 49.6233258928572  38.7572115384614 50  37.5408653846155 50  L 17.6923076923076 50  C 16.5865384615386 50  15.5314503205129 49.7442336309524  14.5270432692307 49.2327008928572  C 13.5226362179487 48.7211681547619  12.6887019230769 48.0282738095238  12.0252403846155 47.1540178571428  L 1.40985576923072 32.8683035714286  C 0.469951923076906 31.6034226190476  0 30.171130952381  0 28.5714285714286  C 0 26.6183035714286  0.686498397435798 24.9395461309524  2.05949519230762 23.53515625  C 3.43249198717945 22.1307663690476  5.08653846153857 21.4285714285714  7.02163461538453 21.4285714285714  C 8.33012820512818 21.4285714285714  9.52804487179492 21.7540922619048  11 22.4051339285714  L 11 7.14285714285717  C 10.6153846153845 5.17113095238096  11.3064903846155 3.48772321428572  12.6887019230769 2.09263392857144  Z " fill-rule="evenodd" />
    </mask>
  </defs>
  <g transform="matrix(1 0 0 1 -1565 -948 )">
    <path d="M 12.6887019230769 2.09263392857144  C 14.0709134615386 0.697544642857167  15.738782051282 0  17.6923076923076 0  C 19.6642628205129 0  21.3367387820513 0.720796130952408  22.7097355769231 2.16238839285717  C 24.0827323717949 3.60398065476193  24.7692307692307 5.31994047619048  24.7692307692307 7.31026785714283  L 24.7692307692307 13.4486607142857  C 25.1746794871795 13.4114583333333  25.4695512820513 13.3928571428572  25.6538461538462 13.3928571428572  C 27.4783653846155 13.3928571428572  29.0725160256411 14.0345982142857  30.4362980769231 15.3180803571428  C 31.3024839743589 14.9274553571428  32.2147435897436 14.7321428571428  33.1730769230769 14.7321428571428  C 35.2556089743589 14.7321428571428  36.9511217948718 15.5412946428572  38.2596153846155 17.1595982142857  C 38.7572115384614 17.0293898809524  39.2732371794873 16.9642857142857  39.8076923076924 16.9642857142857  C 41.5400641025642 16.9642857142857  43.0052083333333 17.5920758928572  44.203125 18.84765625  C 45.4010416666667 20.1032366071428  46 21.6052827380952  46 23.3537946428572  L 46 29.4084821428571  C 46 31.5662202380952  45.7419871794873 33.6588541666667  45.2259615384614 35.6863839285714  L 42.6826923076924 45.9542410714286  C 42.3878205128206 47.1447172619048  41.761217948718 48.1166294642857  40.8028846153845 48.8699776785714  C 39.8445512820513 49.6233258928572  38.7572115384614 50  37.5408653846155 50  L 17.6923076923076 50  C 16.5865384615386 50  15.5314503205129 49.7442336309524  14.5270432692307 49.2327008928572  C 13.5226362179487 48.7211681547619  12.6887019230769 48.0282738095238  12.0252403846155 47.1540178571428  L 1.40985576923072 32.8683035714286  C 0.469951923076906 31.6034226190476  0 30.171130952381  0 28.5714285714286  C 0 26.6183035714286  0.686498397435798 24.9395461309524  2.05949519230762 23.53515625  C 3.43249198717945 22.1307663690476  5.08653846153857 21.4285714285714  7.02163461538453 21.4285714285714  C 8.33012820512818 21.4285714285714  9.52804487179492 21.7540922619048  11 22.4051339285714  L 11 7.14285714285717  C 10.6153846153845 5.17113095238096  11.3064903846155 3.48772321428572  12.6887019230769 2.09263392857144  Z " fill-rule="nonzero" fill="#ffffff" stroke="none" transform="matrix(1 0 0 1 1565 948 )" />
    <path d="M 12.6887019230769 2.09263392857144  C 14.0709134615386 0.697544642857167  15.738782051282 0  17.6923076923076 0  C 19.6642628205129 0  21.3367387820513 0.720796130952408  22.7097355769231 2.16238839285717  C 24.0827323717949 3.60398065476193  24.7692307692307 5.31994047619048  24.7692307692307 7.31026785714283  L 24.7692307692307 13.4486607142857  C 25.1746794871795 13.4114583333333  25.4695512820513 13.3928571428572  25.6538461538462 13.3928571428572  C 27.4783653846155 13.3928571428572  29.0725160256411 14.0345982142857  30.4362980769231 15.3180803571428  C 31.3024839743589 14.9274553571428  32.2147435897436 14.7321428571428  33.1730769230769 14.7321428571428  C 35.2556089743589 14.7321428571428  36.9511217948718 15.5412946428572  38.2596153846155 17.1595982142857  C 38.7572115384614 17.0293898809524  39.2732371794873 16.9642857142857  39.8076923076924 16.9642857142857  C 41.5400641025642 16.9642857142857  43.0052083333333 17.5920758928572  44.203125 18.84765625  C 45.4010416666667 20.1032366071428  46 21.6052827380952  46 23.3537946428572  L 46 29.4084821428571  C 46 31.5662202380952  45.7419871794873 33.6588541666667  45.2259615384614 35.6863839285714  L 42.6826923076924 45.9542410714286  C 42.3878205128206 47.1447172619048  41.761217948718 48.1166294642857  40.8028846153845 48.8699776785714  C 39.8445512820513 49.6233258928572  38.7572115384614 50  37.5408653846155 50  L 17.6923076923076 50  C 16.5865384615386 50  15.5314503205129 49.7442336309524  14.5270432692307 49.2327008928572  C 13.5226362179487 48.7211681547619  12.6887019230769 48.0282738095238  12.0252403846155 47.1540178571428  L 1.40985576923072 32.8683035714286  C 0.469951923076906 31.6034226190476  0 30.171130952381  0 28.5714285714286  C 0 26.6183035714286  0.686498397435798 24.9395461309524  2.05949519230762 23.53515625  C 3.43249198717945 22.1307663690476  5.08653846153857 21.4285714285714  7.02163461538453 21.4285714285714  C 8.33012820512818 21.4285714285714  9.52804487179492 21.7540922619048  11 22.4051339285714  L 11 7.14285714285717  C 10.6153846153845 5.17113095238096  11.3064903846155 3.48772321428572  12.6887019230769 2.09263392857144  Z " stroke-width="2" stroke="#424242" fill="none" stroke-opacity="0.490196078431373" transform="matrix(1 0 0 1 1565 948 )" mask="url(#clip30)" />
  </g>
</svg>