<?xml version="1.0" encoding="utf-8"?>
<svg version="1.1" width="20px" height="20px" xmlns:xlink="http://www.w3.org/1999/xlink" xmlns="http://www.w3.org/2000/svg">
  <defs>
    <mask fill="white" id="clip155">
      <path d="M 10 20  C 4.39999999999998 20  0 15.5999999999999  0 10  C 0 4.40000000000009  4.39999999999998 0  10 0  C 10.6577361981076 0  11.2989181778619 0.0606988006288702  11.9183610303854 0.176911493009584  C 16.5728866535401 1.05013967252239  20 5.0577361981077  20 10  C 20 15.5999999999999  15.6 20  10 20  Z " fill-rule="evenodd" />
    </mask>
  </defs>
  <g transform="translate(-418 -1661 )">
    <path d="M 10 20  C 4.39999999999998 20  0 15.5999999999999  0 10  C 0 4.40000000000009  4.39999999999998 0  10 0  C 10.6577361981076 0  11.2989181778619 0.0606988006288702  11.9183610303854 0.176911493009584  C 16.5728866535401 1.05013967252239  20 5.0577361981077  20 10  C 20 15.5999999999999  15.6 20  10 20  Z " fill-rule="nonzero" fill="#0099ff" stroke="none" transform="matrix(1 0 0 1 418 1661 )" />
    <path d="M 10 20  C 4.39999999999998 20  0 15.5999999999999  0 10  C 0 4.40000000000009  4.39999999999998 0  10 0  C 10.6577361981076 0  11.2989181778619 0.0606988006288702  11.9183610303854 0.176911493009584  C 16.5728866535401 1.05013967252239  20 5.0577361981077  20 10  C 20 15.5999999999999  15.6 20  10 20  Z " stroke-width="4" stroke="#0099ff" fill="none" transform="matrix(1 0 0 1 418 1661 )" mask="url(#clip155)" />
  </g>
</svg>