<?xml version="1.0" encoding="utf-8"?>
<svg version="1.1" width="20px" height="20px" xmlns:xlink="http://www.w3.org/1999/xlink" xmlns="http://www.w3.org/2000/svg">
  <defs>
    <mask fill="white" id="clip270">
      <path d="M 10 20  C 4.40000000000009 20  0 15.6  0 10  C 0 4.39999999999998  4.40000000000009 0  10 0  C 10.2772404250402 0  10.5515396924297 0.0107842447199573  10.8225095127409 0.0319644447324663  C 16.0248792803434 0.438604682714185  20 4.67724042504028  20 10  C 20 15.6  15.5999999999999 20  10 20  Z " fill-rule="evenodd" />
    </mask>
  </defs>
  <g transform="translate(-409 -982 )">
    <path d="M 10 20  C 4.40000000000009 20  0 15.6  0 10  C 0 4.39999999999998  4.40000000000009 0  10 0  C 10.2772404250402 0  10.5515396924297 0.0107842447199573  10.8225095127409 0.0319644447324663  C 16.0248792803434 0.438604682714185  20 4.67724042504028  20 10  C 20 15.6  15.5999999999999 20  10 20  Z " fill-rule="nonzero" fill="#0099ff" stroke="none" transform="matrix(1 0 0 1 409 982 )" />
    <path d="M 10 20  C 4.40000000000009 20  0 15.6  0 10  C 0 4.39999999999998  4.40000000000009 0  10 0  C 10.2772404250402 0  10.5515396924297 0.0107842447199573  10.8225095127409 0.0319644447324663  C 16.0248792803434 0.438604682714185  20 4.67724042504028  20 10  C 20 15.6  15.5999999999999 20  10 20  Z " stroke-width="4" stroke="#0099ff" fill="none" transform="matrix(1 0 0 1 409 982 )" mask="url(#clip270)" />
  </g>
</svg>