<?xml version="1.0" encoding="utf-8"?>
<svg version="1.1" width="9px" height="9px" xmlns:xlink="http://www.w3.org/1999/xlink" xmlns="http://www.w3.org/2000/svg">
  <defs>
    <mask fill="white" id="clip157">
      <path d="M 0 4.5  C 0 6.9852813741  2.0147186259 9  4.5 9  C 6.9852813741 9  9 6.9852813741  9 4.5  C 9 2.0147186259  6.9852813741 0  4.5 0  C 2.0147186259 0  0 2.0147186259  0 4.5  Z " fill-rule="evenodd" />
    </mask>
  </defs>
  <g transform="translate(-472 -491 )">
    <path d="M 0 4.5  C 0 6.9852813741  2.0147186259 9  4.5 9  C 6.9852813741 9  9 6.9852813741  9 4.5  C 9 2.0147186259  6.9852813741 0  4.5 0  C 2.0147186259 0  0 2.0147186259  0 4.5  Z " fill-rule="nonzero" fill="#4a4a4a" stroke="none" transform="matrix(1 0 0 1 472 491 )" />
    <path d="M 0 4.5  C 0 6.9852813741  2.0147186259 9  4.5 9  C 6.9852813741 9  9 6.9852813741  9 4.5  C 9 2.0147186259  6.9852813741 0  4.5 0  C 2.0147186259 0  0 2.0147186259  0 4.5  Z " stroke-width="2" stroke="#ffffff" fill="none" transform="matrix(1 0 0 1 472 491 )" mask="url(#clip157)" />
  </g>
</svg>