<?xml version="1.0" encoding="utf-8"?>
<svg version="1.1" width="17px" height="10px" xmlns:xlink="http://www.w3.org/1999/xlink" xmlns="http://www.w3.org/2000/svg">
  <g transform="translate(-340 -198 )">
    <path d="M 0.132628242806085 9.23897230462558  C -0.0296537715926831 9.39552657338831  -0.0451092015354229 9.67384527341096  0.0978535254349203 9.85214319061297  C 0.175130675148619 9.95216397343361  0.279454827262113 10  0.387642836861292 10  C 0.476511559032045 10  0.569244138688484 9.96521016249717  0.642657430916498 9.89128175780365  C 0.642657430916498 9.89128175780365  6.94460899006865 3.64650592604554  6.94460899006865 3.64650592604554  C 6.94460899006865 3.64650592604554  10.1593384181585 7.26464902633993  10.1593384181585 7.26464902633993  C 10.3100288601002 7.43424948416623  10.5534518816984 7.43424948416623  10.7041423236401 7.26464902633993  C 10.8548327655818 7.09504856851363  10.8548327655818 6.82107859817884  10.7041423236401 6.65147814035254  C 10.7041423236401 6.65147814035254  9.61453451267695 5.42513636837776  9.61453451267695 5.42513636837776  L 13.1654195420214 1.04596557270894  C 13.1654195420214 1.04596557270894  16.3569658251972 4.23793316359366  16.3569658251972 4.23793316359366  C 16.5153839821103 4.39883616204425  16.7588070037084 4.38144124329283  16.9017697306788 4.20314332609083  C 17.0447324576491 4.02484540888882  17.0292770277064 3.75087543855403  16.8708588707933 3.58997244010344  C 16.8708588707933 3.58997244010344  13.3933871336768 0.110988689820362  13.3933871336768 0.110988689820362  C 13.2349689767637 -0.0499143086302298  12.9915459551656 -0.0325193898788148  12.8524470856809 0.141429797635339  C 12.8524470856809 0.141429797635339  9.06973060719537 4.80761675270251  9.06973060719537 4.80761675270251  C 9.06973060719537 4.80761675270251  7.2382621589807 2.74631888065979  7.2382621589807 2.74631888065979  C 7.09529943201036 2.5854158822092  6.86346798286926 2.57671842283349  6.70891368344186 2.72892396190838  C 6.70891368344186 2.72892396190838  0.132628242806085 9.23897230462558  0.132628242806085 9.23897230462558  Z " fill-rule="nonzero" fill="#2a2a2a" stroke="none" transform="matrix(1 0 0 1 340 198 )" />
  </g>
</svg>