<?xml version="1.0" encoding="utf-8"?>
<svg version="1.1" width="11px" height="11px" xmlns:xlink="http://www.w3.org/1999/xlink" xmlns="http://www.w3.org/2000/svg">
  <g transform="translate(-350 -203 )">
    <path d="M 1.20185185185187 10.3725925925926  L 4.37148148148151 9.50888888888888  C 4.37148148148151 9.50888888888888  10.6414814814815 3.23888888888888  10.6414814814815 3.23888888888888  C 11.1140740740741 2.76629629629628  11.1140740740741 1.99222222222222  10.6414814814815 1.51962962962961  C 10.6414814814815 1.51962962962961  9.48444444444448 0.354444444444446  9.48444444444448 0.354444444444446  C 9.02407407407411 -0.105925925925945  8.22555555555558 -0.105925925925945  7.76518518518521 0.354444444444446  C 7.76518518518521 0.354444444444446  1.49111111111114 6.62444444444444  1.49111111111114 6.62444444444444  L 0.627407407407439 9.79407407407406  C 0.627407407407439 9.79407407407406  0.415555555555571 10.0059259259259  0.415555555555571 10.0059259259259  C 0.256666666666688 10.1648148148148  0.256666666666688 10.4174074074074  0.411481481481501 10.5803703703704  C 0.488888888888907 10.6577777777778  0.598888888888923 10.7025925925926  0.700740740740775 10.7025925925926  C 0.806666666666697 10.7025925925926  0.908518518518549 10.6618518518518  0.990000000000026 10.5844444444444  C 0.990000000000026 10.5844444444444  1.20185185185187 10.3725925925926  1.20185185185187 10.3725925925926  Z M 1.5725925925926 9.4274074074074  L 2.06555555555555 7.62259259259258  L 3.37740740740742 8.93444444444445  L 1.5725925925926 9.4274074074074  Z M 8.3314814814815 4.39185185185186  L 4.16370370370371 8.56777777777779  L 2.43222222222223 6.83629629629631  L 6.60407407407409 2.66444444444445  L 8.3314814814815 4.39185185185186  Z M 8.90592592592593 0.932962962962948  C 8.90592592592593 0.932962962962948  10.067037037037 2.09407407407407  10.067037037037 2.09407407407407  C 10.2259259259259 2.24888888888888  10.2259259259259 2.50555555555555  10.067037037037 2.66037037037036  C 10.067037037037 2.66037037037036  8.91 3.81740740740741  8.91 3.81740740740741  L 7.18259259259259 2.09  C 7.18259259259259 2.09  8.33962962962962 0.932962962962948  8.33962962962962 0.932962962962948  C 8.49037037037036 0.782222222222229  8.75518518518519 0.782222222222229  8.90592592592593 0.932962962962948  Z " fill-rule="nonzero" fill="#2a2a2a" stroke="none" transform="matrix(1 0 0 1 350 203 )" />
  </g>
</svg>