<?xml version="1.0" encoding="utf-8"?>
<svg version="1.1" width="5px" height="5px" xmlns:xlink="http://www.w3.org/1999/xlink" xmlns="http://www.w3.org/2000/svg">
  <g transform="translate(-343 -195 )">
    <path d="M 0.17916666666667 2.32083333333333  C 0.17916666666667 3.59999999999999  1.22083333333334 4.64166666666666  2.5 4.64166666666666  C 3.77916666666666 4.64166666666666  4.82083333333333 3.59999999999999  4.82083333333333 2.32083333333333  C 4.82083333333333 1.04166666666667  3.77916666666666 0  2.5 0  C 1.22083333333334 0  0.17916666666667 1.04166666666667  0.17916666666667 2.32083333333333  Z M 3.9875 2.32083333333333  C 3.9875 3.14166666666665  3.32083333333332 3.80833333333333  2.5 3.80833333333333  C 1.67916666666668 3.80833333333333  1.0125 3.14166666666665  1.0125 2.32083333333333  C 1.0125 1.50000000000001  1.67916666666668 0.833333333333333  2.5 0.833333333333333  C 3.32083333333332 0.833333333333333  3.9875 1.50000000000001  3.9875 2.32083333333333  Z " fill-rule="nonzero" fill="#2a2a2a" stroke="none" transform="matrix(1 0 0 1 343 195 )" />
  </g>
</svg>