<?xml version="1.0" encoding="utf-8"?>
<svg version="1.1" width="23px" height="18px" xmlns:xlink="http://www.w3.org/1999/xlink" xmlns="http://www.w3.org/2000/svg">
  <g transform="translate(-338 -192 )">
    <path d="M 23 0.391304347826087  C 23 0.176086956521739  22.8215517241379 0  22.6034482758621 0  C 22.6034482758621 0  0.396551724137931 0  0.396551724137931 0  C 0.178448275862069 0  0 0.176086956521739  0 0.391304347826087  C 0 0.391304347826087  0 17.6086956521739  0 17.6086956521739  C 0 17.8239130434783  0.178448275862069 18  0.396551724137931 18  C 0.396551724137931 18  10.7068965517241 18  10.7068965517241 18  C 10.925 18  11.1034482758621 17.8239130434783  11.1034482758621 17.6086956521739  C 11.1034482758621 17.3934782608696  10.925 17.2173913043478  10.7068965517241 17.2173913043478  C 10.7068965517241 17.2173913043478  1 17.2173913043478  1 17.2173913043478  L 1 1  L 22.2068965517241 1  C 22.2068965517241 1  22.2068965517241 10.1739130434783  22.2068965517241 10.1739130434783  C 22.2068965517241 10.3891304347826  22.3853448275862 10.5652173913043  22.6034482758621 10.5652173913043  C 22.8215517241379 10.5652173913043  23 10.3891304347826  23 10.1739130434783  C 23 10.1739130434783  23 0.391304347826087  23 0.391304347826087  Z " fill-rule="nonzero" fill="#2a2a2a" stroke="none" transform="matrix(1 0 0 1 338 192 )" />
  </g>
</svg>