<?xml version="1.0" encoding="utf-8"?>
<svg version="1.1" width="20px" height="20px" xmlns:xlink="http://www.w3.org/1999/xlink" xmlns="http://www.w3.org/2000/svg">
  <defs>
    <mask fill="white" id="clip86">
      <path d="M 10 20  C 4.39999999999998 20  0 15.6  0 10  C 0 6.25661107850419  1.96610416828253 3.04943238472185  4.9424823019832 1.33429412151736  C 6.41867853292104 0.483635863074937  8.14338892149578 0  10 0  C 15.6 0  20 4.39999999999998  20 10  C 20 15.6  15.6 20  10 20  Z " fill-rule="evenodd" />
    </mask>
  </defs>
  <g transform="translate(-979 -780 )">
    <path d="M 10 20  C 4.39999999999998 20  0 15.6  0 10  C 0 6.25661107850419  1.96610416828253 3.04943238472185  4.9424823019832 1.33429412151736  C 6.41867853292104 0.483635863074937  8.14338892149578 0  10 0  C 15.6 0  20 4.39999999999998  20 10  C 20 15.6  15.6 20  10 20  Z " fill-rule="nonzero" fill="#0099ff" stroke="none" transform="matrix(1 0 0 1 979 780 )" />
    <path d="M 10 20  C 4.39999999999998 20  0 15.6  0 10  C 0 6.25661107850419  1.96610416828253 3.04943238472185  4.9424823019832 1.33429412151736  C 6.41867853292104 0.483635863074937  8.14338892149578 0  10 0  C 15.6 0  20 4.39999999999998  20 10  C 20 15.6  15.6 20  10 20  Z " stroke-width="4" stroke="#0099ff" fill="none" transform="matrix(1 0 0 1 979 780 )" mask="url(#clip86)" />
  </g>
</svg>