<?xml version="1.0" encoding="utf-8"?>
<svg version="1.1" width="9px" height="16px" xmlns:xlink="http://www.w3.org/1999/xlink" xmlns="http://www.w3.org/2000/svg">
  <g transform="translate(-305 -682 )">
    <path d="M 8.84536082474222 0.961923847695402  C 8.94845360824741 1.06880427521708  9 1.1917167668671  9 1.33066132264526  C 9 1.46960587842352  8.94845360824741 1.59251837007355  8.84536082474222 1.69939879759522  L 2.76804123711338 8  L 8.84536082474222 14.3006012024048  C 8.94845360824741 14.4074816299265  9 14.5303941215765  9 14.6693386773547  C 9 14.8082832331329  8.94845360824741 14.9311957247829  8.84536082474222 15.0380761523046  L 8.07216494845363 15.8396793587174  C 7.96907216494844 15.9465597862392  7.85051546391753 16  7.71649484536078 16  C 7.58247422680415 16  7.46391752577324 15.9465597862392  7.36082474226805 15.8396793587174  L 0.154639175257785 8.36873747494997  C 0.0515463917525949 8.26185704742818  0 8.13894455577815  0 8  C 0 7.86105544422185  0.0515463917525949 7.73814295257182  0.154639175257785 7.63126252505003  L 7.36082474226805 0.160320641282624  C 7.46391752577324 0.0534402137608367  7.58247422680415 0  7.71649484536078 0  C 7.85051546391753 0  7.96907216494844 0.0534402137608367  8.07216494845363 0.160320641282624  L 8.84536082474222 0.961923847695402  Z " fill-rule="nonzero" fill="#ffffff" stroke="none" transform="matrix(1 0 0 1 305 682 )" />
  </g>
</svg>