<?xml version="1.0" encoding="utf-8"?>
<svg version="1.1" width="20px" height="20px" xmlns:xlink="http://www.w3.org/1999/xlink" xmlns="http://www.w3.org/2000/svg">
  <defs>
    <mask fill="white" id="clip397">
      <path d="M 10 20  C 4.39999999999998 20  0 15.6  0 10  C 0 4.98620901205175  3.52702934667275 0.934335118650552  8.28449220202128 0.140974157793494  C 8.8407315041801 0.048214937039802  9.41379098794823 0  10 0  C 15.6 0  20 4.39999999999998  20 10  C 20 15.6  15.6 20  10 20  Z " fill-rule="evenodd" />
    </mask>
  </defs>
  <g transform="translate(-983 -1237 )">
    <path d="M 10 20  C 4.39999999999998 20  0 15.6  0 10  C 0 4.98620901205175  3.52702934667275 0.934335118650552  8.28449220202128 0.140974157793494  C 8.8407315041801 0.048214937039802  9.41379098794823 0  10 0  C 15.6 0  20 4.39999999999998  20 10  C 20 15.6  15.6 20  10 20  Z " fill-rule="nonzero" fill="#0099ff" stroke="none" transform="matrix(1 0 0 1 983 1237 )" />
    <path d="M 10 20  C 4.39999999999998 20  0 15.6  0 10  C 0 4.98620901205175  3.52702934667275 0.934335118650552  8.28449220202128 0.140974157793494  C 8.8407315041801 0.048214937039802  9.41379098794823 0  10 0  C 15.6 0  20 4.39999999999998  20 10  C 20 15.6  15.6 20  10 20  Z " stroke-width="4" stroke="#0099ff" fill="none" transform="matrix(1 0 0 1 983 1237 )" mask="url(#clip397)" />
  </g>
</svg>