<?xml version="1.0" encoding="utf-8"?>
<svg version="1.1" width="7px" height="12px" xmlns:xlink="http://www.w3.org/1999/xlink" xmlns="http://www.w3.org/2000/svg">
  <g transform="translate(-340 -420 )">
    <path d="M 6.87972508591059 0.721442885771467  C 6.95990836197018 0.801603206412892  7 0.893787575150327  7 0.997995991983998  C 7 1.10220440881767  6.95990836197018 1.1943887775551  6.87972508591059 1.27454909819653  L 2.15292096219929 6  L 6.87972508591059 10.7254509018035  C 6.95990836197018 10.8056112224449  7 10.8977955911823  7 11.002004008016  C 7 11.1062124248497  6.95990836197018 11.1983967935871  6.87972508591059 11.2785571142285  L 6.27835051546395 11.8797595190381  C 6.19816723940437 11.9599198396793  6.10595647193588 12  6.00171821305838 12  C 5.89747995418099 12  5.80526918671251 11.9599198396793  5.72508591065292 11.8797595190381  L 0.120274914089407 6.27655310621253  C 0.0400916380298213 6.19639278557133  0 6.10420841683367  0 6  C 0 5.89579158316633  0.0400916380298213 5.80360721442867  0.120274914089407 5.72344689378747  L 5.72508591065292 0.120240480961911  C 5.80526918671251 0.0400801603207128  5.89747995418099 0  6.00171821305838 0  C 6.10595647193588 0  6.19816723940437 0.0400801603207128  6.27835051546395 0.120240480961911  L 6.87972508591059 0.721442885771467  Z " fill-rule="nonzero" fill="#666666" stroke="none" transform="matrix(1 0 0 1 340 420 )" />
  </g>
</svg>