<?xml version="1.0" encoding="utf-8"?>
<svg version="1.1" width="20px" height="20px" xmlns:xlink="http://www.w3.org/1999/xlink" xmlns="http://www.w3.org/2000/svg">
  <defs>
    <mask fill="white" id="clip199">
      <path d="M 10 20  C 4.39999999999998 20  0 15.6  0 10  C 0 6.63984764222892  1.58414365486965 3.71173446305863  4.06113693383514 1.90695449326302  C 5.71227859795539 0.703904235515097  7.76015235777112 0  10 0  C 10.6699346381318 0  11.322695331645 0.0629711302685791  11.9528033089331 0.183434619199375  C 16.5897833010815 1.06992837596874  20 5.06993463813183  20 10  C 20 15.6  15.6 20  10 20  Z " fill-rule="evenodd" />
    </mask>
  </defs>
  <g transform="translate(-499 -673 )">
    <path d="M 10 20  C 4.39999999999998 20  0 15.6  0 10  C 0 6.63984764222892  1.58414365486965 3.71173446305863  4.06113693383514 1.90695449326302  C 5.71227859795539 0.703904235515097  7.76015235777112 0  10 0  C 10.6699346381318 0  11.322695331645 0.0629711302685791  11.9528033089331 0.183434619199375  C 16.5897833010815 1.06992837596874  20 5.06993463813183  20 10  C 20 15.6  15.6 20  10 20  Z " fill-rule="nonzero" fill="#0099ff" stroke="none" transform="matrix(1 0 0 1 499 673 )" />
    <path d="M 10 20  C 4.39999999999998 20  0 15.6  0 10  C 0 6.63984764222892  1.58414365486965 3.71173446305863  4.06113693383514 1.90695449326302  C 5.71227859795539 0.703904235515097  7.76015235777112 0  10 0  C 10.6699346381318 0  11.322695331645 0.0629711302685791  11.9528033089331 0.183434619199375  C 16.5897833010815 1.06992837596874  20 5.06993463813183  20 10  C 20 15.6  15.6 20  10 20  Z " stroke-width="4" stroke="#0099ff" fill="none" transform="matrix(1 0 0 1 499 673 )" mask="url(#clip199)" />
  </g>
</svg>