<?xml version="1.0" encoding="utf-8"?>
<svg version="1.1" width="20px" height="20px" xmlns:xlink="http://www.w3.org/1999/xlink" xmlns="http://www.w3.org/2000/svg">
  <defs>
    <mask fill="white" id="clip226">
      <path d="M 10 20  C 4.39999999999998 20  0 15.6  0 10  C 0 4.39999999999998  4.39999999999998 0  10 0  C 10.6699346381318 0  11.322695331645 0.0629711302685791  11.9528033089331 0.183434619199375  C 16.165165550756 0.988750327904199  19.3651520017686 4.36346528603303  19.9158881118549 8.67070494346993  C 19.9714038331207 9.10488659938142  20 9.54854382238898  20 10  C 20 15.6  15.6 20  10 20  Z " fill-rule="evenodd" />
    </mask>
  </defs>
  <g transform="translate(-773 -231 )">
    <path d="M 10 20  C 4.39999999999998 20  0 15.6  0 10  C 0 4.39999999999998  4.39999999999998 0  10 0  C 10.6699346381318 0  11.322695331645 0.0629711302685791  11.9528033089331 0.183434619199375  C 16.165165550756 0.988750327904199  19.3651520017686 4.36346528603303  19.9158881118549 8.67070494346993  C 19.9714038331207 9.10488659938142  20 9.54854382238898  20 10  C 20 15.6  15.6 20  10 20  Z " fill-rule="nonzero" fill="#0099ff" stroke="none" transform="matrix(1 0 0 1 773 231 )" />
    <path d="M 10 20  C 4.39999999999998 20  0 15.6  0 10  C 0 4.39999999999998  4.39999999999998 0  10 0  C 10.6699346381318 0  11.322695331645 0.0629711302685791  11.9528033089331 0.183434619199375  C 16.165165550756 0.988750327904199  19.3651520017686 4.36346528603303  19.9158881118549 8.67070494346993  C 19.9714038331207 9.10488659938142  20 9.54854382238898  20 10  C 20 15.6  15.6 20  10 20  Z " stroke-width="4" stroke="#0099ff" fill="none" transform="matrix(1 0 0 1 773 231 )" mask="url(#clip226)" />
  </g>
</svg>