<?xml version="1.0" encoding="utf-8"?>
<svg version="1.1" width="20px" height="20px" xmlns:xlink="http://www.w3.org/1999/xlink" xmlns="http://www.w3.org/2000/svg">
  <defs>
    <mask fill="white" id="clip202">
      <path d="M 10 20  C 4.4 20  0 15.6  0 10  C 0 4.4  4.4 0  10 0  C 15.6 0  20 4.4  20 10  C 20 15.6  15.6 20  10 20  Z " fill-rule="evenodd" />
    </mask>
  </defs>
  <g transform="translate(-1121 -814 )">
    <path d="M 10 20  C 4.4 20  0 15.6  0 10  C 0 4.4  4.4 0  10 0  C 15.6 0  20 4.4  20 10  C 20 15.6  15.6 20  10 20  Z " fill-rule="nonzero" fill="#0099ff" stroke="none" transform="matrix(1 0 0 1 1121 814 )" />
    <path d="M 10 20  C 4.4 20  0 15.6  0 10  C 0 4.4  4.4 0  10 0  C 15.6 0  20 4.4  20 10  C 20 15.6  15.6 20  10 20  Z " stroke-width="4" stroke="#0099ff" fill="none" transform="matrix(1 0 0 1 1121 814 )" mask="url(#clip202)" />
  </g>
</svg>