<?xml version="1.0" encoding="utf-8"?>
<svg version="1.1" width="20px" height="20px" xmlns:xlink="http://www.w3.org/1999/xlink" xmlns="http://www.w3.org/2000/svg">
  <defs>
    <mask fill="white" id="clip395">
      <path d="M 10 20  C 4.39999999999998 20  0 15.6  0 10  C 0 4.72261875326001  3.90763113594221 0.51095508904973  9.04470389146331 0.0431985237325989  C 9.35874525597831 0.0146034624937101  9.67738124673997 0  10 0  C 10.6699346381318 0  11.322695331645 0.0629711302685791  11.9528033089331 0.183434619199375  C 16.5897833010815 1.06992837596874  20 5.06993463813183  20 10  C 20 15.6  15.6 20  10 20  Z " fill-rule="evenodd" />
    </mask>
  </defs>
  <g transform="translate(-512 -543 )">
    <path d="M 10 20  C 4.39999999999998 20  0 15.6  0 10  C 0 4.72261875326001  3.90763113594221 0.51095508904973  9.04470389146331 0.0431985237325989  C 9.35874525597831 0.0146034624937101  9.67738124673997 0  10 0  C 10.6699346381318 0  11.322695331645 0.0629711302685791  11.9528033089331 0.183434619199375  C 16.5897833010815 1.06992837596874  20 5.06993463813183  20 10  C 20 15.6  15.6 20  10 20  Z " fill-rule="nonzero" fill="#0099ff" stroke="none" transform="matrix(1 0 0 1 512 543 )" />
    <path d="M 10 20  C 4.39999999999998 20  0 15.6  0 10  C 0 4.72261875326001  3.90763113594221 0.51095508904973  9.04470389146331 0.0431985237325989  C 9.35874525597831 0.0146034624937101  9.67738124673997 0  10 0  C 10.6699346381318 0  11.322695331645 0.0629711302685791  11.9528033089331 0.183434619199375  C 16.5897833010815 1.06992837596874  20 5.06993463813183  20 10  C 20 15.6  15.6 20  10 20  Z " stroke-width="4" stroke="#0099ff" fill="none" transform="matrix(1 0 0 1 512 543 )" mask="url(#clip395)" />
  </g>
</svg>