<?xml version="1.0" encoding="utf-8"?>
<svg version="1.1" width="7px" height="13px" xmlns:xlink="http://www.w3.org/1999/xlink" xmlns="http://www.w3.org/2000/svg">
  <g transform="translate(-557 -539 )">
    <path d="M 6.87972508591066 0.781563126252514  C 6.9599083619702 0.868403473613874  7 0.968269873079475  7 1.08116232464932  C 7 1.19405477621911  6.9599083619702 1.29392117568471  6.87972508591066 1.38076152304607  L 2.1529209621993 6.5  L 6.87972508591066 11.6192384769539  C 6.9599083619702 11.7060788243153  7 11.8059452237809  7 11.9188376753507  C 7 12.0317301269205  6.9599083619702 12.1315965263861  6.87972508591066 12.2184368737475  L 6.27835051546394 12.8697394789579  C 6.19816723940435 12.9565798263193  6.10595647193586 13  6.00171821305843 13  C 5.89747995418101 13  5.80526918671248 12.9565798263193  5.72508591065293 12.8697394789579  L 0.120274914089344 6.7995991983968  C 0.040091638029796 6.7127588510354  0 6.6128924515698  0 6.5  C 0 6.3871075484302  0.040091638029796 6.2872411489646  0.120274914089344 6.2004008016032  L 3.19545137887098 2.8699133792531  L 5.72508591065293 0.130260521042086  C 5.80526918671248 0.0434201736806799  5.89747995418101 0  6.00171821305843 0  C 6.10595647193586 0  6.19816723940435 0.0434201736806799  6.27835051546394 0.130260521042086  L 6.87972508591066 0.781563126252514  Z " fill-rule="nonzero" fill="#333333" stroke="none" transform="matrix(1 0 0 1 557 539 )" />
  </g>
</svg>