<?xml version="1.0" encoding="utf-8"?>
<svg version="1.1" width="83px" height="86px" xmlns:xlink="http://www.w3.org/1999/xlink" xmlns="http://www.w3.org/2000/svg">
  <g transform="translate(-173 -382 )">
    <path d="M 36.4621394230769 8.03850446428571  C 35.2317708333333 6.77473958333333  33.71875 6.14285714285714  31.9230769230769 6.14285714285714  C 30.1606570512821 6.14285714285714  28.6559495192308 6.74274553571429  27.4089543269231 7.94252232142857  C 26.1619591346154 9.14229910714286  25.5384615384615 10.5900297619048  26 12.2857142857143  L 26 36.8571428571429  L 25.5384615384615 55.2857142857143  L 18.0066105769231 45.5915178571429  C 16.6432291666667 43.8638392857143  14.8641826923077 43  12.6694711538462 43  C 10.9403044871795 43  9.46053685897436 43.6078869047619  8.23016826923077 44.8236607142857  C 6.99979967948718 46.0394345238095  6.38461538461539 47.4791666666667  6.38461538461539 49.1428571428571  C 6.38461538461539 50.5186011904762  6.81690705128205 51.7503720238095  7.68149038461539 52.8381696428571  L 26.8353365384615 77.4095982142857  C 28.0989583333333 79.0412946428571  29.7948717948718 79.8571428571429  31.9230769230769 79  L 67.7367788461539 79  C 68.4683493589744 79.8571428571429  69.1251001602564 79.6411830357143  69.70703125 79.2092633928571  C 70.2889623397436 78.77734375  70.6630608974359 78.2254464285714  70.8293269230769 77.5535714285714  L 75.4182692307692 59.8928571428571  C 76.2163461538461 56.8214285714286  76.6153846153846 53.718005952381  76 50.5825892857143  L 76 40.1685267857143  C 76.6153846153846 38.8567708333333  76.1498397435897 37.7209821428571  75.21875 36.7611607142857  C 74.2876602564103 35.8013392857143  73.1570512820513 35.3214285714286  71.8269230769231 35.3214285714286  C 70.4967948717949 35.3214285714286  69.3661858974359 35.7693452380952  68.4350961538461 36.6651785714286  C 67.5040064102564 37.5610119047619  67.0384615384615 38.6488095238095  67.0384615384615 39.9285714285714  L 65.4423076923077 39.9285714285714  L 65.4423076923077 37.0011160714286  C 65.4423076923077 35.4654017857143  64.9102564102564 34.1616443452381  63.8461538461538 33.08984375  C 62.7820512820513 32.0180431547619  61.4519230769231 31.4821428571429  59.8557692307692 31.4821428571429  C 58.3261217948718 31.4821428571429  57.0126201923077 32.0100446428571  55.9152644230769 33.0658482142857  C 54.8179086538462 34.1216517857143  54.2692307692308 35.3854166666667  54.2692307692308 36.8571428571429  L 54.2692307692308 39.9285714285714  L 52.6730769230769 39.9285714285714  L 52.6730769230769 35.609375  C 52.6730769230769 33.8497023809524  52.0578926282051 32.3379836309524  50.8275240384615 31.07421875  C 49.5971554487179 29.8104538690476  48.0841346153846 29.1785714285714  46.2884615384615 29.1785714285714  C 44.5260416666667 29.1785714285714  43.0213341346154 29.7784598214286  41.7743389423077 30.9782366071429  C 40.52734375 32.1780133928571  39.9038461538462 33.625744047619  39.9038461538462 35.3214285714286  L 39.9038461538462 39.9285714285714  L 39 39.9285714285714  L 39 12.5736607142857  C 38.3076923076923 10.8139880952381  37.6925080128205 9.30226934523809  36.4621394230769 8.03850446428571  Z M 22.8948317307692 3.59933035714286  C 25.3888221153846 1.19977678571429  28.3982371794872 0  31.9230769230769 0  C 35.4811698717949 0  38.4988982371795 1.2397693452381  40.9762620192308 3.71930803571429  C 43.4536258012821 6.19884672619047  44.6923076923077 9.15029761904761  44 12.5736607142857  L 44 23.1316964285714  C 45.4238782051282 23.0677083333333  45.9559294871795 23.0357142857143  46.2884615384615 23.0357142857143  C 49.5805288461538 23.0357142857143  52.4569310897436 24.1395089285714  54.9176682692308 26.3470982142857  C 56.4805689102564 25.6752232142857  58.1266025641026 25.3392857142857  59.8557692307692 25.3392857142857  C 63.6133814102564 25.3392857142857  66.6726762820513 26.7310267857143  69.0336538461539 29.5145089285714  C 69.9314903846154 29.2905505952381  70.8625801282051 29.1785714285714  71.8269230769231 29.1785714285714  C 74.9527243589744 29.1785714285714  77.5963541666667 30.2583705357143  79.7578125 32.41796875  C 81.9192708333333 34.5775669642857  83 37.1610863095238  83 40.1685267857143  L 83 50.5825892857143  C 83 54.2938988095238  82.5344551282051 57.8932291666667  81.6033653846154 61.3805803571429  L 77.0144230769231 79.0412946428571  C 76.4823717948718 81.0889136904762  75.3517628205128 82.7606026785714  73.6225961538461 84.0563616071429  C 71.8934294871795 85.3521205357143  69.9314903846154 86  67.7367788461539 86  L 31.9230769230769 86  C 29.9278846153846 86  28.0241386217949 85.5600818452381  26.2118389423077 84.6802455357143  C 24.3995392628205 83.8004092261905  22.8948317307692 82.608630952381  21.6977163461538 81.1049107142857  L 2.54387019230769 56.5334821428571  C 0.847956730769231 54.3578869047619  0 51.8943452380952  0 49.1428571428571  C 0 45.7834821428571  1.23868189102564 42.8960193452381  3.71604567307692 40.48046875  C 6.19340945512821 38.0649181547619  9.17788461538462 36.8571428571429  12.6694711538462 36.8571428571429  C 15.0304487179487 36.8571428571429  17.1919070512821 37.4170386904762  20 38.5368303571429  L 20 12.2857142857143  C 19.1538461538462 8.89434523809523  20.4008413461538 5.99888392857143  22.8948317307692 3.59933035714286  Z M 37 67.5714285714286  L 39 67.5714285714286  L 39 49.1428571428571  L 37 49.1428571428571  L 37 67.5714285714286  Z M 49 67.5714285714286  L 51 67.5714285714286  L 51 49.1428571428571  L 49 49.1428571428571  L 49 67.5714285714286  Z M 62 67.5714285714286  L 63 67.5714285714286  L 63 49.1428571428571  L 62 49.1428571428571  L 62 67.5714285714286  Z " fill-rule="nonzero" fill="#7f7f7f" stroke="none" transform="matrix(1 0 0 1 173 382 )" />
  </g>
</svg>