<?xml version="1.0" encoding="utf-8"?>
<svg version="1.1" width="20px" height="20px" xmlns:xlink="http://www.w3.org/1999/xlink" xmlns="http://www.w3.org/2000/svg">
  <defs>
    <mask fill="white" id="clip70">
      <path d="M 10 20  C 4.4 20  0 15.6  0 10  C 0 5.10005169527517  3.36867891937159 1.11883400492445  7.96235460744762 0.200029079614865  C 8.61864937894165 0.0687601548039538  9.29994830472482 0  10 0  C 15.6 0  20 4.39999999999998  20 10  C 20 15.6  15.6 20  10 20  Z " fill-rule="evenodd" />
    </mask>
  </defs>
  <g transform="translate(-48 -800 )">
    <path d="M 10 20  C 4.4 20  0 15.6  0 10  C 0 5.10005169527517  3.36867891937159 1.11883400492445  7.96235460744762 0.200029079614865  C 8.61864937894165 0.0687601548039538  9.29994830472482 0  10 0  C 15.6 0  20 4.39999999999998  20 10  C 20 15.6  15.6 20  10 20  Z " fill-rule="nonzero" fill="#0099ff" stroke="none" transform="matrix(1 0 0 1 48 800 )" />
    <path d="M 10 20  C 4.4 20  0 15.6  0 10  C 0 5.10005169527517  3.36867891937159 1.11883400492445  7.96235460744762 0.200029079614865  C 8.61864937894165 0.0687601548039538  9.29994830472482 0  10 0  C 15.6 0  20 4.39999999999998  20 10  C 20 15.6  15.6 20  10 20  Z " stroke-width="4" stroke="#0099ff" fill="none" transform="matrix(1 0 0 1 48 800 )" mask="url(#clip70)" />
  </g>
</svg>