<?xml version="1.0" encoding="utf-8"?>
<svg version="1.1" width="20px" height="20px" xmlns:xlink="http://www.w3.org/1999/xlink" xmlns="http://www.w3.org/2000/svg">
  <defs>
    <mask fill="white" id="clip269">
      <path d="M 10 20  C 4.39999999999998 20  0 15.5999999999999  0 10  C 0 4.40000000000009  4.39999999999998 0  10 0  C 10.6577361981076 0  11.2989181778619 0.0606988006288702  11.9183610303854 0.176911493009356  C 13.9359024163379 0.555419236695343  15.7228304141973 1.52283041367991  17.1000000013041 2.90000000130431  C 18.9000000005314 4.70000000120763  20 7.20000000067648  20 10  C 20 15.5999999999999  15.6 20  10 20  Z " fill-rule="evenodd" />
    </mask>
  </defs>
  <g transform="translate(-418 -2623 )">
    <path d="M 10 20  C 4.39999999999998 20  0 15.5999999999999  0 10  C 0 4.40000000000009  4.39999999999998 0  10 0  C 10.6577361981076 0  11.2989181778619 0.0606988006288702  11.9183610303854 0.176911493009356  C 13.9359024163379 0.555419236695343  15.7228304141973 1.52283041367991  17.1000000013041 2.90000000130431  C 18.9000000005314 4.70000000120763  20 7.20000000067648  20 10  C 20 15.5999999999999  15.6 20  10 20  Z " fill-rule="nonzero" fill="#0099ff" stroke="none" transform="matrix(1 0 0 1 418 2623 )" />
    <path d="M 10 20  C 4.39999999999998 20  0 15.5999999999999  0 10  C 0 4.40000000000009  4.39999999999998 0  10 0  C 10.6577361981076 0  11.2989181778619 0.0606988006288702  11.9183610303854 0.176911493009356  C 13.9359024163379 0.555419236695343  15.7228304141973 1.52283041367991  17.1000000013041 2.90000000130431  C 18.9000000005314 4.70000000120763  20 7.20000000067648  20 10  C 20 15.5999999999999  15.6 20  10 20  Z " stroke-width="4" stroke="#0099ff" fill="none" transform="matrix(1 0 0 1 418 2623 )" mask="url(#clip269)" />
  </g>
</svg>