<?xml version="1.0" encoding="utf-8"?>
<svg version="1.1" width="18px" height="41px" xmlns:xlink="http://www.w3.org/1999/xlink" xmlns="http://www.w3.org/2000/svg">
  <g transform="translate(-195 -618 )">
    <path d="M 10.265625 0.399999999999977  L 12.6 1.71428571428567  L 12.6 30.2857142857143  L 16.2 30.2857142857143  C 16.6875 30.2857142857143  17.109375 30.4624255952381  17.465625 30.8158482142857  C 17.821875 31.1692708333334  18 31.5877976190476  18 32.0714285714286  C 18 32.5550595238095  17.821875 32.9735863095239  17.465625 33.3270089285714  L 10.265625 40.4698660714286  C 9.90937500000001 40.8232886904761  9.48750000000001 41  9 41  C 8.51249999999999 41  8.09062499999999 40.8232886904761  7.734375 40.4698660714286  L 0.534375000000011 33.3270089285714  C 0.178125000000023 32.9735863095239  0 32.5550595238095  0 32.0714285714286  C 0 31.5877976190476  0.178125000000023 31.1692708333334  0.534375000000011 30.8158482142857  C 0.890625 30.4624255952381  1.3125 30.2857142857143  1.80000000000001 30.2857142857143  L 5.39999999999998 30.2857142857143  L 5.39999999999998 1.71428571428567  L 7.734375 0.399999999999977  C 7.734375 0.399999999999977  9.90937500000001 0.0465773809523853  10.265625 0.399999999999977  Z " fill-rule="nonzero" fill="#333333" stroke="none" transform="matrix(1 0 0 1 195 618 )" />
  </g>
</svg>