<?xml version="1.0" encoding="utf-8"?>
<svg version="1.1" xmlns:xlink="http://www.w3.org/1999/xlink" width="61px" height="60px" xmlns="http://www.w3.org/2000/svg">
  <defs>
    <mask fill="white" id="clip24">
      <path d="M 0 30  C 0 46.568542494  13.6553151311 60  30.5 60  C 47.3446848689 60  61 46.568542494  61 30  C 61 13.431457506  47.3446848689 0  30.5 0  C 13.6553151311 0  0 13.431457506  0 30  Z " fill-rule="evenodd" />
    </mask>
  </defs>
  <g transform="matrix(1 0 0 1 -2006 -683 )">
    <path d="M 0 30  C 0 46.568542494  13.6553151311 60  30.5 60  C 47.3446848689 60  61 46.568542494  61 30  C 61 13.431457506  47.3446848689 0  30.5 0  C 13.6553151311 0  0 13.431457506  0 30  Z " fill-rule="nonzero" fill="#ffffff" stroke="none" fill-opacity="0" transform="matrix(1 0 0 1 2006 683 )" />
    <path d="M 0 30  C 0 46.568542494  13.6553151311 60  30.5 60  C 47.3446848689 60  61 46.568542494  61 30  C 61 13.431457506  47.3446848689 0  30.5 0  C 13.6553151311 0  0 13.431457506  0 30  Z " stroke-width="2" stroke="#8e8e93" fill="none" transform="matrix(1 0 0 1 2006 683 )" mask="url(#clip24)" />
  </g>
</svg>