<?xml version="1.0" encoding="utf-8"?>
<svg version="1.1" xmlns:xlink="http://www.w3.org/1999/xlink" width="40px" height="40px" xmlns="http://www.w3.org/2000/svg">
  <defs>
    <mask fill="white" id="clip23">
      <path d="M 0 20  C 0 31.045694996  8.954305004 40  20 40  C 31.045694996 40  40 31.045694996  40 20  C 40 8.954305004  31.045694996 0  20 0  C 8.954305004 0  0 8.954305004  0 20  Z " fill-rule="evenodd" />
    </mask>
  </defs>
  <g transform="matrix(1 0 0 1 -507 -675 )">
    <path d="M 0 20  C 0 31.045694996  8.954305004 40  20 40  C 31.045694996 40  40 31.045694996  40 20  C 40 8.954305004  31.045694996 0  20 0  C 8.954305004 0  0 8.954305004  0 20  Z " fill-rule="nonzero" fill="#ffffff" stroke="none" fill-opacity="0" transform="matrix(1 0 0 1 507 675 )" />
    <path d="M 0 20  C 0 31.045694996  8.954305004 40  20 40  C 31.045694996 40  40 31.045694996  40 20  C 40 8.954305004  31.045694996 0  20 0  C 8.954305004 0  0 8.954305004  0 20  Z " stroke-width="2" stroke="#515151" fill="none" transform="matrix(1 0 0 1 507 675 )" mask="url(#clip23)" />
  </g>
</svg>