<?xml version="1.0" encoding="utf-8"?>
<svg version="1.1" xmlns:xlink="http://www.w3.org/1999/xlink" width="60px" height="60px" xmlns="http://www.w3.org/2000/svg">
  <defs>
    <mask fill="white" id="clip22">
      <path d="M 0 30  C 0 46.568542494  13.431457506 60  30 60  C 46.568542494 60  60 46.568542494  60 30  C 60 13.431457506  46.568542494 0  30 0  C 13.431457506 0  0 13.431457506  0 30  Z " fill-rule="evenodd" />
    </mask>
  </defs>
  <g transform="matrix(1 0 0 1 -1625 -683 )">
    <path d="M 0 30  C 0 46.568542494  13.431457506 60  30 60  C 46.568542494 60  60 46.568542494  60 30  C 60 13.431457506  46.568542494 0  30 0  C 13.431457506 0  0 13.431457506  0 30  Z " fill-rule="nonzero" fill="#ffffff" stroke="none" fill-opacity="0" transform="matrix(1 0 0 1 1625 683 )" />
    <path d="M 0 30  C 0 46.568542494  13.431457506 60  30 60  C 46.568542494 60  60 46.568542494  60 30  C 60 13.431457506  46.568542494 0  30 0  C 13.431457506 0  0 13.431457506  0 30  Z " stroke-width="2" stroke="#8e8e93" fill="none" transform="matrix(1 0 0 1 1625 683 )" mask="url(#clip22)" />
  </g>
</svg>