<?xml version="1.0" encoding="utf-8"?>
<svg version="1.1" width="16px" height="17px" xmlns:xlink="http://www.w3.org/1999/xlink" xmlns="http://www.w3.org/2000/svg">
  <g transform="translate(-1046 -182 )">
    <path d="M 8.63193912209338 15.1291300356181  C 12.7849330203719 14.8135215952107  15.9888212837026 11.53260097886  15.9999997656102 7.58391619513721  C 16.0007527131564 4.62676213611818  14.1873891475455 1.9390277671516  11.3548498268708 0.698959766034466  C 8.52231050619602 -0.541108235082662  5.18752289943845 -0.10720225507096  2.81238832548897 1.81046237626315  C 0.437253751539493 3.72812700759725  -0.544774917530661 6.77958391309015  0.296803200431608 9.62713804264647  C 0.367965651117939 9.86936107482809  0.632836774751801 10.0110463893828  0.888409419754709 9.94360105351508  C 1.14398206475762 9.87615571764735  1.29347607399467 9.62511990684511  1.22231363854166 9.38289687064344  C 0.406828096458387 6.63115411625235  1.53167147448446 3.69281033795649  4.0191773156978 2.07686018584291  C 6.50668315691114 0.460910033729336  9.80399202417391 0.526505746453506  12.2177617438655 2.23996046262753  C 14.6315314635571 3.95341517880156  15.6252907854399 6.93390582888722  14.6886918355612 9.65079311913168  C 13.7520928856826 12.3676804093761  11.093299021762 14.217123836909  8.07774125496161 14.2493365665749  C 8.07774125496161 14.2493365665749  9.43552602943443 12.2428822073241  9.43552602943443 12.2428822073241  C 9.52808907899016 12.1058950127677  9.53651131673851 11.9325112404817  9.45762016723205 11.7880428794378  C 9.37872901772559 11.6435745183939  9.22450992328804 11.5499697493416  9.05305572422586 11.5424885828541  C 8.88160152516368 11.5350074163666  8.71896019297778 11.6147864196003  8.62639714342206 11.7517736141568  C 8.62639714342206 11.7517736141568  6.4899643656291 14.9032726077443  6.4899643656291 14.9032726077443  C 6.4899643656291 14.9032726077443  9.8151515684197 16.9281107111243  9.8151515684197 16.9281107111243  C 9.95968852280617 17.0158388117478  10.1426279754128 17.0238211213649  10.295058404973 16.9490507811976  C 10.4474888345333 16.8742804410303  10.5462524326833 16.7281168444352  10.5541459078571 16.5656184036445  C 10.5620393830309 16.4031199628537  10.4778635285744 16.2489740566415  10.3333265741879 16.161245956018  C 10.3333265741879 16.161245956018  8.63193912209338 15.1291300356181  8.63193912209338 15.1291300356181  Z " fill-rule="nonzero" fill="#333333" stroke="none" fill-opacity="0.709803921568627" transform="matrix(1 0 0 1 1046 182 )" />
  </g>
</svg>